<?xml version="1.0" encoding="utf-8"?>
<!-- Generator: Adobe Illustrator 26.3.1, SVG Export Plug-In . SVG Version: 6.00 Build 0)  -->
<svg version="1.1" id="Layer_1" xmlns="http://www.w3.org/2000/svg" xmlns:xlink="http://www.w3.org/1999/xlink" x="0px" y="0px"
	 viewBox="0 0 732.6 259.9" style="enable-background:new 0 0 732.6 259.9;" xml:space="preserve">
<style type="text/css">
	.st0{fill:#FFB92A;}
	.st1{fill:#AF2734;}
	.st2{fill:#FFFFFF;}
</style>
<g>
	<polygon class="st0" points="24.8,62 47.2,88.6 24.8,115.2 58.5,108.5 69.7,141.8 81,108.5 114.7,115.2 92.2,88.6 114.7,62 
		81,68.6 69.7,35.4 58.5,68.6 24.8,62 	"/>
	<polygon class="st1" points="179.5,0 0,0 0,61.9 24.8,61.9 24.8,24.8 154.7,24.8 154.7,137.6 142.8,115.2 114.7,115.2 135.9,155.3 
		179.5,155.3 179.5,0 	"/>
</g>
<g>
	<path class="st2" d="M278.9,75.4c6.4-8.1,9.6-17.8,9.6-28.9c0-14.3-5.1-26-15.3-34.7C264.3,4.2,247.7,0,226.7,0H198v155.3h27V93.6
		h0.7l42.8,61.8h33.1l-46.9-65.2C264.9,87.4,273.6,82.1,278.9,75.4L278.9,75.4L278.9,75.4z M262.1,46.8c0,18.6-17.4,22.5-32.1,22.5
		h-5V25.8h5.8C256.6,25.8,262.1,37.2,262.1,46.8L262.1,46.8z"/>
	<path class="st2" d="M403.4,20c-7.8-7.2-16.7-12.4-26.3-15.4C368.2,1.6,356,0,340.8,0h-33.6v155.3h33.2c15.4,0,27.4-1.4,35.9-4.3
		c9.1-2.9,17.9-8.1,26.2-15.4c16.5-14.7,24.9-34.2,24.9-57.9S419.3,34.6,403.4,20L403.4,20L403.4,20z M400.1,77.7
		c0,15.7-5.4,28.6-16,38.3c-5.2,4.7-11,8.2-17.4,10.4c-6.5,2.1-14.8,3.1-24.6,3.1h-8V25.8h8c18.6,0,32.8,4.4,42.2,13.2
		C394.8,48.8,400.1,61.8,400.1,77.7L400.1,77.7L400.1,77.7z"/>
	<polygon class="st2" points="600.8,0 561.1,96.9 525.7,0 517.7,0 481.2,96.9 443.8,0 414.5,0 476.2,155.3 486.3,155.3 521.4,62.2 
		555.1,155.3 565.2,155.3 630.2,0 600.8,0 	"/>
	<path class="st2" d="M663.6,0h-11.5l-72,155.3h29.2l16.7-36.7h61.2l15.7,36.7h29.6L663.6,0L663.6,0z M676.1,92.9h-38.7l19.8-43.7
		L676.1,92.9L676.1,92.9L676.1,92.9z"/>
	<g>
		<polygon class="st2" points="198.1,171.7 207.8,171.7 207.8,208.6 211.8,208.6 211.8,171.7 221.4,171.7 221.4,167.9 198.1,167.9 
					"/>
		<polygon class="st2" points="245.9,186.3 230.8,186.3 230.8,167.9 226.8,167.9 226.8,208.6 230.8,208.6 230.8,190.2 245.9,190.2 
			245.9,208.6 249.9,208.6 249.9,167.9 245.9,167.9 		"/>
		<polygon class="st2" points="258.7,208.6 281.8,208.6 281.8,204.8 262.7,204.8 262.7,190.2 278.2,190.2 278.2,186.3 262.7,186.3 
			262.7,171.7 281.8,171.7 281.8,167.9 258.7,167.9 		"/>
		<polygon class="st2" points="320.6,186.3 305.6,186.3 305.6,167.9 301.6,167.9 301.6,208.6 305.6,208.6 305.6,190.2 320.6,190.2 
			320.6,208.6 324.7,208.6 324.7,167.9 320.6,167.9 		"/>
		<polygon class="st2" points="333.5,208.6 356.6,208.6 356.6,204.8 337.5,204.8 337.5,190.2 353,190.2 353,186.3 337.5,186.3 
			337.5,171.7 356.6,171.7 356.6,167.9 333.5,167.9 		"/>
		<path class="st2" d="M370.9,167.9l-11.9,40.5l-0.1,0.2h4.2l2.6-9.4h12.5l2.7,9.4h4.2l-12-40.7H370.9L370.9,167.9z M377.2,195.3
			h-10.3l5.1-18.1L377.2,195.3L377.2,195.3z"/>
		<path class="st2" d="M406.2,190.6c1.2-0.5,2.3-1.2,3.2-2.2s1.6-2,2.2-3.2c0.5-1.2,0.8-2.6,0.8-3.9V178c0-1.4-0.3-2.7-0.8-3.9
			c-0.5-1.2-1.2-2.3-2.2-3.2c-0.9-0.9-2-1.6-3.2-2.2c-1.2-0.5-2.5-0.8-3.9-0.8h-13v40.7h4v-17.2h4.7l10.9,17.1l0.1,0.1h4.7l-11-17.2
			C403.9,191.3,405.1,191.1,406.2,190.6L406.2,190.6z M393.3,171.7h8.8c0.9,0,1.7,0.2,2.4,0.5c0.8,0.3,1.4,0.8,2,1.4s1,1.2,1.3,2
			s0.5,1.6,0.5,2.4v3.3c0,0.9-0.2,1.7-0.5,2.4s-0.8,1.4-1.3,2s-1.2,1-2,1.4s-1.6,0.5-2.4,0.5h-8.8V171.7L393.3,171.7z"/>
		<polygon class="st2" points="416.5,171.7 426.1,171.7 426.1,208.6 430.1,208.6 430.1,171.7 439.7,171.7 439.7,167.9 416.5,167.9 
					"/>
		<path class="st2" d="M477.9,170.3c-0.9-0.9-2-1.6-3.2-2.2c-1.2-0.5-2.5-0.8-3.9-0.8h-2.9c-1.4,0-2.7,0.3-4,0.8
			c-1.2,0.5-2.3,1.2-3.2,2.2s-1.6,2-2.2,3.2c-0.5,1.2-0.8,2.5-0.8,3.9v21.7c0,1.4,0.3,2.7,0.8,3.9c0.5,1.2,1.2,2.3,2.2,3.2
			s2,1.6,3.2,2.2c1.2,0.5,2.6,0.8,4,0.8h2.9c1.4,0,2.7-0.3,3.9-0.8c1.2-0.5,2.3-1.2,3.2-2.2c0.9-0.9,1.6-2,2.2-3.2l0,0
			c0.5-1.2,0.8-2.5,0.8-3.9v-21.7c0-1.4-0.3-2.7-0.8-3.9C479.5,172.2,478.8,171.2,477.9,170.3z M476.8,177.4v21.7
			c0,0.9-0.2,1.7-0.5,2.4c-0.3,0.8-0.8,1.4-1.3,2s-1.2,1-2,1.4s-1.6,0.5-2.4,0.5H468c-0.9,0-1.7-0.2-2.4-0.5c-0.8-0.3-1.4-0.8-2-1.4
			c-0.6-0.6-1-1.2-1.4-2c-0.3-0.8-0.5-1.6-0.5-2.4v-21.7c0-0.9,0.2-1.7,0.5-2.4c0.3-0.8,0.8-1.4,1.4-2s1.2-1,2-1.3s1.6-0.5,2.4-0.5
			h2.5c0.9,0,1.7,0.2,2.4,0.5c0.8,0.3,1.4,0.8,2,1.3s1,1.2,1.3,2S476.8,176.5,476.8,177.4z"/>
		<polygon class="st2" points="489.1,208.6 493.1,208.6 493.1,190.2 508.6,190.2 508.6,186.3 493.1,186.3 493.1,171.7 512.2,171.7 
			512.2,167.9 489.1,167.9 		"/>
		<path class="st2" d="M550.4,170.3c-0.9-0.9-2-1.6-3.2-2.2c-1.2-0.5-2.5-0.8-3.9-0.8h-2.9c-1.4,0-2.7,0.3-4,0.8
			c-1.2,0.5-2.3,1.2-3.2,2.2s-1.6,2-2.2,3.2c-0.5,1.2-0.8,2.5-0.8,3.9v21.7c0,1.4,0.3,2.7,0.8,3.9c0.5,1.2,1.2,2.3,2.2,3.2
			s2,1.6,3.2,2.2c1.2,0.5,2.6,0.8,4,0.8h2.9c1.4,0,2.7-0.3,3.9-0.8c1.2-0.5,2.3-1.2,3.2-2.2c0.9-0.9,1.6-2,2.2-3.2
			c0.5-1.2,0.8-2.5,0.8-3.9v-1.8l-4-0.7v2.4c0,0.9-0.2,1.7-0.5,2.4c-0.3,0.8-0.8,1.4-1.3,2s-1.2,1-2,1.4c-0.8,0.3-1.6,0.5-2.4,0.5
			h-2.5c-0.9,0-1.7-0.2-2.4-0.5c-0.8-0.3-1.4-0.8-2-1.4s-1-1.2-1.3-2c-0.3-0.8-0.5-1.6-0.5-2.4v-21.7c0-0.9,0.2-1.7,0.5-2.4
			c0.3-0.8,0.8-1.4,1.3-2c0.6-0.6,1.2-1,2-1.3s1.6-0.5,2.4-0.5h2.5c0.9,0,1.7,0.2,2.4,0.5c0.8,0.3,1.4,0.8,2,1.3s1,1.2,1.3,2
			s0.5,1.6,0.5,2.4v2.4l4-0.6v-1.8c0-1.4-0.3-2.7-0.8-3.9C552,172.3,551.3,171.2,550.4,170.3L550.4,170.3z"/>
		<path class="st2" d="M580.6,170.3c-0.9-0.9-2-1.6-3.2-2.2c-1.2-0.5-2.5-0.8-3.9-0.8h-2.9c-1.4,0-2.7,0.3-4,0.8
			c-1.2,0.5-2.3,1.2-3.2,2.2s-1.6,2-2.2,3.2c-0.5,1.2-0.8,2.5-0.8,3.9v21.7c0,1.4,0.3,2.7,0.8,3.9c0.5,1.2,1.2,2.3,2.2,3.2
			s2,1.6,3.2,2.2c1.2,0.5,2.6,0.8,4,0.8h2.9c1.4,0,2.7-0.3,3.9-0.8c1.2-0.5,2.3-1.2,3.2-2.2c0.9-0.9,1.6-2,2.2-3.2
			c0.5-1.2,0.8-2.5,0.8-3.9v-21.7c0-1.4-0.3-2.7-0.8-3.9C582.2,172.2,581.5,171.2,580.6,170.3z M579.5,177.4v21.7
			c0,0.9-0.2,1.7-0.5,2.4c-0.3,0.8-0.8,1.4-1.3,2s-1.2,1-2,1.4c-0.8,0.3-1.6,0.5-2.4,0.5h-2.5c-0.9,0-1.7-0.2-2.4-0.5
			c-0.8-0.3-1.4-0.8-2-1.4s-1-1.2-1.3-2c-0.3-0.8-0.5-1.6-0.5-2.4v-21.7c0-0.9,0.2-1.7,0.5-2.4c0.3-0.8,0.8-1.4,1.3-2
			c0.6-0.6,1.2-1,2-1.3s1.6-0.5,2.4-0.5h2.5c0.9,0,1.7,0.2,2.4,0.5c0.8,0.3,1.4,0.8,2,1.3s1,1.2,1.3,2S579.5,176.5,579.5,177.4z"/>
		<path class="st2" d="M610.3,199.1c0,0.9-0.2,1.7-0.5,2.4c-0.3,0.8-0.8,1.4-1.3,2s-1.2,1-2,1.4c-0.8,0.3-1.6,0.5-2.4,0.5h-2.5
			c-0.9,0-1.7-0.2-2.4-0.5c-0.8-0.3-1.4-0.8-2-1.4s-1-1.2-1.3-2c-0.3-0.8-0.5-1.6-0.5-2.4v-31.2h-4v31.2c0,1.4,0.3,2.7,0.8,3.9
			c0.5,1.2,1.2,2.3,2.2,3.2s2,1.6,3.2,2.2c1.2,0.5,2.6,0.8,4,0.8h2.9c1.4,0,2.7-0.3,3.9-0.8c1.2-0.5,2.3-1.2,3.2-2.2
			c0.9-0.9,1.6-2,2.2-3.2c0.5-1.2,0.8-2.5,0.8-3.9v-31.2h-4L610.3,199.1L610.3,199.1z"/>
		<polygon class="st2" points="641.6,197.4 624.8,168 624.8,167.9 622.6,167.9 622.6,208.6 626.6,208.6 626.6,179.2 643.4,208.5 
			643.4,208.6 645.7,208.6 645.7,167.9 641.6,167.9 		"/>
		<polygon class="st2" points="651,171.7 660.7,171.7 660.7,208.6 664.7,208.6 664.7,171.7 674.3,171.7 674.3,167.9 651,167.9 		"/>
		<path class="st2" d="M697.4,190.6c1.2-0.5,2.3-1.2,3.2-2.2c0.9-0.9,1.6-2,2.2-3.2c0.5-1.2,0.8-2.6,0.8-3.9V178
			c0-1.4-0.3-2.7-0.8-3.9c-0.5-1.2-1.2-2.3-2.2-3.2s-2-1.6-3.2-2.2c-1.2-0.5-2.5-0.8-3.9-0.8h-13v40.7h4v-17.2h4.7l10.9,17.1
			l0.1,0.1h4.7l-11-17.2C695.1,191.3,696.3,191.1,697.4,190.6L697.4,190.6z M684.5,171.7h8.8c0.9,0,1.7,0.2,2.4,0.5
			c0.8,0.3,1.4,0.8,2,1.4s1,1.2,1.3,2s0.5,1.6,0.5,2.4v3.3c0,0.9-0.2,1.7-0.5,2.4c-0.3,0.8-0.8,1.4-1.3,2s-1.2,1-2,1.4
			s-1.6,0.5-2.4,0.5h-8.8V171.7L684.5,171.7z"/>
		<polygon class="st2" points="728.3,167.9 720.1,184.4 711.9,167.9 707.6,167.9 718.2,189.2 718.2,208.6 722.2,208.6 722.2,189.1 
			732.6,167.9 		"/>
	</g>
	<g>
		<path class="st2" d="M361.8,241c-0.9-0.8-2-1.6-3.1-2.1c-1.1-0.6-2.3-1.1-3.5-1.6c-1.2-0.5-2.4-0.9-3.5-1.4c-1.1-0.4-2.1-1-3-1.6
			c-0.9-0.6-1.6-1.4-2.1-2.2c-0.5-0.9-0.8-1.9-0.8-3.2v-0.8c0-0.9,0.2-1.7,0.5-2.4s0.8-1.4,1.4-2s1.2-1,2-1.3s1.6-0.5,2.4-0.5h2.2
			c0.9,0,1.7,0.2,2.4,0.5c0.8,0.3,1.4,0.8,2,1.3s1,1.2,1.3,2s0.5,1.6,0.5,2.4v1.9l4-0.6v-1.2c0-1.4-0.3-2.7-0.8-3.9
			c-0.5-1.2-1.2-2.3-2.2-3.2c-0.9-0.9-2-1.6-3.2-2.2c-1.2-0.5-2.5-0.8-3.9-0.8h-2.6c-1.4,0-2.7,0.3-4,0.8c-1.2,0.5-2.3,1.2-3.2,2.2
			c-0.9,0.9-1.6,2-2.2,3.2c-0.5,1.2-0.8,2.5-0.8,3.9v0.8c0,1.8,0.3,3.2,0.8,4.4s1.3,2.2,2.2,3.1c0.9,0.8,2,1.5,3.1,2.1
			c1.1,0.5,2.3,1.1,3.5,1.5c1.2,0.5,2.4,0.9,3.5,1.4s2.1,1,3,1.6c0.9,0.6,1.6,1.4,2.1,2.3c0.5,0.9,0.8,2,0.8,3.4v1.2
			c0,0.9-0.2,1.7-0.5,2.4c-0.4,0.8-0.8,1.4-1.4,2c-0.6,0.6-1.3,1-2.1,1.4c-0.8,0.3-1.6,0.5-2.5,0.5h-2.5c-0.9,0-1.7-0.2-2.5-0.5
			c-0.8-0.3-1.5-0.8-2.1-1.4s-1.1-1.2-1.4-2c-0.4-0.8-0.5-1.6-0.5-2.4v-2.4l-4,0.7v1.8c0,1.4,0.3,2.7,0.9,3.9s1.3,2.3,2.3,3.2
			s2,1.6,3.3,2.2c1.2,0.5,2.6,0.8,4,0.8h2.9c1.4,0,2.7-0.3,4-0.8c1.2-0.5,2.4-1.2,3.3-2.2c0.9-0.9,1.7-2,2.3-3.2s0.9-2.5,0.9-3.9
			v-1.2c0-1.8-0.3-3.2-0.8-4.5S362.7,241.8,361.8,241L361.8,241z"/>
		<path class="st2" d="M391.8,221c-0.9-0.9-2-1.6-3.2-2.2c-1.2-0.5-2.5-0.8-3.9-0.8h-2.9c-1.4,0-2.7,0.3-4,0.8
			c-1.2,0.5-2.3,1.2-3.2,2.2c-0.9,0.9-1.6,2-2.2,3.2c-0.5,1.2-0.8,2.5-0.8,3.9v21.7c0,1.4,0.3,2.7,0.8,3.9c0.5,1.2,1.2,2.3,2.2,3.2
			c0.9,0.9,2,1.6,3.2,2.2c1.2,0.5,2.6,0.8,4,0.8h2.9c1.4,0,2.7-0.3,3.9-0.8c1.2-0.5,2.3-1.2,3.2-2.2c0.9-0.9,1.6-2,2.2-3.2
			c0.5-1.2,0.8-2.5,0.8-3.9v-21.7c0-1.4-0.3-2.7-0.8-3.9C393.5,222.9,392.7,221.9,391.8,221L391.8,221z M390.8,228.1v21.7
			c0,0.9-0.2,1.7-0.5,2.4s-0.8,1.4-1.3,2s-1.2,1-2,1.4s-1.6,0.5-2.4,0.5H382c-0.9,0-1.7-0.2-2.4-0.5c-0.8-0.3-1.4-0.8-2-1.4
			c-0.6-0.6-1-1.2-1.4-2c-0.3-0.8-0.5-1.6-0.5-2.4v-21.7c0-0.9,0.2-1.7,0.5-2.4s0.8-1.4,1.4-2s1.2-1,2-1.3s1.6-0.5,2.4-0.5h2.5
			c0.9,0,1.7,0.2,2.4,0.5c0.8,0.3,1.4,0.8,2,1.3s1,1.2,1.3,2S390.8,227.2,390.8,228.1z"/>
		<path class="st2" d="M421.5,249.8c0,0.9-0.2,1.7-0.5,2.4s-0.8,1.4-1.3,2s-1.2,1-2,1.4s-1.6,0.5-2.4,0.5h-2.5
			c-0.9,0-1.7-0.2-2.4-0.5c-0.8-0.3-1.4-0.8-2-1.4c-0.6-0.6-1-1.2-1.4-2c-0.3-0.8-0.5-1.6-0.5-2.4v-31.2h-4v31.2
			c0,1.4,0.3,2.7,0.8,3.9c0.5,1.2,1.2,2.3,2.2,3.2c0.9,0.9,2,1.6,3.2,2.2c1.2,0.5,2.6,0.8,4,0.8h2.9c1.4,0,2.7-0.3,3.9-0.8
			c1.2-0.5,2.3-1.2,3.2-2.2c0.9-0.9,1.6-2,2.2-3.2c0.5-1.2,0.8-2.5,0.8-3.9v-31.2h-4L421.5,249.8L421.5,249.8z"/>
		<polygon class="st2" points="430.4,222.4 440,222.4 440,259.3 444,259.3 444,222.4 453.6,222.4 453.6,218.6 430.4,218.6 		"/>
		<polygon class="st2" points="478.1,237 463,237 463,218.6 459,218.6 459,259.3 463,259.3 463,240.9 478.1,240.9 478.1,259.3 
			482.1,259.3 482.1,218.6 478.1,218.6 		"/>
		<path class="st2" d="M512,218.6L500.1,259l-0.1,0.2h4.2l2.6-9.4h12.5l2.7,9.4h4.2l-12-40.7L512,218.6L512,218.6z M518.3,246H508
			l5.1-18.1L518.3,246L518.3,246z"/>
		<path class="st2" d="M549.4,249.8c0,0.9-0.2,1.7-0.5,2.4c-0.3,0.8-0.8,1.4-1.3,2s-1.2,1-2,1.4c-0.8,0.3-1.6,0.5-2.4,0.5h-2.5
			c-0.9,0-1.7-0.2-2.4-0.5c-0.8-0.3-1.4-0.8-2-1.4s-1-1.2-1.3-2c-0.3-0.8-0.5-1.6-0.5-2.4v-31.2h-4v31.2c0,1.4,0.3,2.7,0.8,3.9
			c0.5,1.2,1.2,2.3,2.2,3.2c0.9,0.9,2,1.6,3.2,2.2c1.2,0.5,2.6,0.8,4,0.8h2.9c1.4,0,2.7-0.3,3.9-0.8c1.2-0.5,2.3-1.2,3.2-2.2
			c0.9-0.9,1.6-2,2.2-3.2c0.5-1.2,0.8-2.5,0.8-3.9v-31.2h-4L549.4,249.8L549.4,249.8z"/>
		<path class="st2" d="M581.1,241c-0.9-0.8-2-1.6-3.1-2.1c-1.1-0.6-2.3-1.1-3.5-1.6c-1.2-0.5-2.4-0.9-3.5-1.4c-1.1-0.4-2.1-1-3-1.6
			c-0.9-0.6-1.6-1.4-2.1-2.2c-0.5-0.8-0.8-1.9-0.8-3.2v-0.8c0-0.9,0.2-1.7,0.5-2.4c0.3-0.8,0.8-1.4,1.3-2c0.6-0.6,1.2-1,2-1.3
			s1.6-0.5,2.4-0.5h2.2c0.9,0,1.7,0.2,2.4,0.5c0.8,0.3,1.4,0.8,2,1.3s1,1.2,1.3,2s0.5,1.6,0.5,2.4v1.9l4-0.6v-1.2
			c0-1.4-0.3-2.7-0.8-3.9c-0.5-1.2-1.2-2.3-2.2-3.2c-0.9-0.9-2-1.6-3.2-2.2c-1.2-0.5-2.5-0.8-3.9-0.8h-2.6c-1.4,0-2.7,0.3-4,0.8
			c-1.2,0.5-2.3,1.2-3.2,2.2s-1.6,2-2.2,3.2c-0.5,1.2-0.8,2.5-0.8,3.9v0.8c0,1.8,0.3,3.2,0.8,4.4s1.3,2.2,2.2,3.1
			c0.9,0.8,2,1.5,3.1,2.1c1.1,0.6,2.3,1.1,3.5,1.5c1.2,0.5,2.4,0.9,3.5,1.4c1.1,0.4,2.1,1,3,1.6c0.9,0.6,1.6,1.4,2.1,2.3
			c0.5,0.9,0.8,2,0.8,3.4v1.2c0,0.9-0.2,1.7-0.5,2.4c-0.3,0.8-0.8,1.4-1.4,2c-0.6,0.6-1.3,1-2.1,1.4c-0.8,0.3-1.6,0.5-2.5,0.5h-2.5
			c-0.9,0-1.7-0.2-2.5-0.5c-0.8-0.3-1.5-0.8-2.1-1.4c-0.6-0.6-1.1-1.2-1.4-2s-0.5-1.6-0.5-2.4v-2.4l-4,0.7v1.8
			c0,1.4,0.3,2.7,0.8,3.9s1.3,2.3,2.3,3.2s2,1.6,3.3,2.2c1.2,0.5,2.6,0.8,4,0.8h2.9c1.4,0,2.7-0.3,4-0.8c1.2-0.5,2.3-1.2,3.3-2.2
			c0.9-0.9,1.7-2,2.3-3.2s0.8-2.6,0.8-3.9v-1.2c0-1.7-0.3-3.2-0.8-4.5S582,241.8,581.1,241L581.1,241z"/>
		<polygon class="st2" points="588.1,222.4 597.7,222.4 597.7,259.3 601.8,259.3 601.8,222.4 611.4,222.4 611.4,218.6 588.1,218.6 
					"/>
		<path class="st2" d="M633.1,241.3c1.2-0.5,2.3-1.2,3.2-2.2c0.9-0.9,1.6-2,2.2-3.2c0.5-1.2,0.8-2.6,0.8-3.9v-3.3
			c0-1.4-0.3-2.7-0.8-3.9c-0.5-1.2-1.2-2.3-2.2-3.2s-2-1.6-3.2-2.2c-1.2-0.5-2.5-0.8-3.9-0.8h-13v40.7h4v-17.2h4.7l10.9,17.1
			l0.1,0.1h4.7l-11-17.2C630.8,242,632,241.8,633.1,241.3L633.1,241.3z M620.2,222.4h8.8c0.9,0,1.7,0.2,2.4,0.5
			c0.8,0.3,1.4,0.8,2,1.4s1,1.2,1.3,2s0.5,1.6,0.5,2.4v3.3c0,0.9-0.2,1.7-0.5,2.4c-0.3,0.8-0.8,1.4-1.3,2s-1.2,1-2,1.4
			s-1.6,0.5-2.4,0.5h-8.8V222.4L620.2,222.4z"/>
		<path class="st2" d="M654.6,218.6L642.8,259l-0.1,0.2h4.2l2.6-9.4H662l2.7,9.4h4.2l-12-40.7L654.6,218.6L654.6,218.6z M660.9,246
			h-10.3l5.1-18.1L660.9,246L660.9,246z"/>
		<polygon class="st2" points="677,218.6 672.9,218.6 672.9,259.3 692.4,259.3 692.4,255.4 677,255.4 		"/>
		<rect x="697.8" y="218.6" class="st2" width="4" height="40.7"/>
		<path class="st2" d="M718.5,218.6L706.6,259l-0.1,0.2h4.2l2.6-9.4h12.5l2.7,9.4h4.2l-12-40.7L718.5,218.6L718.5,218.6z M724.8,246
			h-10.3l5.1-18.1L724.8,246L724.8,246z"/>
	</g>
</g>
</svg>
